<?xml version="1.0" encoding="UTF-8"?>
<svg xmlns="http://www.w3.org/2000/svg" viewBox="0 0 1328 558" width="1328" height="558" fill="none">
  <defs>
    <linearGradient id="leafGradient" x1="82" y1="71" x2="404" y2="51" gradientUnits="userSpaceOnUse">
      <stop offset="0" stop-color="#B61329"/>
      <stop offset="0.45" stop-color="#C31834"/>
      <stop offset="1" stop-color="#D31A36"/>
    </linearGradient>
  </defs>
  <path fill="url(#leafGradient)" fill-rule="evenodd" d="M 223 21 L 405 22 L 385 47 L 345 85 L 312 106 L 284 117 L 254 122 L 82 121 L 109 88 L 149 53 L 183 33 Z"/>
  <path fill="#D31B37" fill-rule="evenodd" d="M 296 232 L 412 232 L 412 233 L 413 233 L 413 234 L 412 234 L 412 276 L 413 276 L 413 277 L 412 277 L 412 278 L 297 278 L 297 277 L 296 277 L 296 254 L 297 254 L 297 253 L 296 253 Z"/>
  <path fill="#FDFDFD" fill-rule="evenodd" d="M 78 151 L 302 151 L 302 192 L 223 192 L 223 364 L 222 364 L 222 370 L 158 370 L 158 369 L 157 369 L 157 192 L 78 192 Z M 532 154 L 552 154 L 552 155 L 571 156 L 571 157 L 576 157 L 576 158 L 584 159 L 584 160 L 593 162 L 593 163 L 595 163 L 595 164 L 597 164 L 597 165 L 600 165 L 601 167 L 607 169 L 609 172 L 611 172 L 614 176 L 616 176 L 616 177 L 619 179 L 619 181 L 620 181 L 620 182 L 623 184 L 623 186 L 625 187 L 625 189 L 626 189 L 626 191 L 627 191 L 627 193 L 628 193 L 629 199 L 630 199 L 631 216 L 630 216 L 630 222 L 629 222 L 628 228 L 627 228 L 627 230 L 626 230 L 624 236 L 623 236 L 623 237 L 621 238 L 621 240 L 620 240 L 615 246 L 613 246 L 610 250 L 608 250 L 608 251 L 605 252 L 604 254 L 602 254 L 602 255 L 596 257 L 596 258 L 594 258 L 593 260 L 598 261 L 598 262 L 600 262 L 600 263 L 602 263 L 602 264 L 608 266 L 609 268 L 613 269 L 615 272 L 617 272 L 617 273 L 628 283 L 628 285 L 629 285 L 630 288 L 632 289 L 632 291 L 633 291 L 633 293 L 634 293 L 634 296 L 635 296 L 635 299 L 636 299 L 636 303 L 637 303 L 637 321 L 636 321 L 636 326 L 635 326 L 634 332 L 633 332 L 633 334 L 632 334 L 630 340 L 628 341 L 628 343 L 625 345 L 625 347 L 624 347 L 619 353 L 617 353 L 617 354 L 616 354 L 615 356 L 613 356 L 612 358 L 608 359 L 607 361 L 605 361 L 605 362 L 603 362 L 603 363 L 601 363 L 601 364 L 599 364 L 599 365 L 597 365 L 597 366 L 594 366 L 594 367 L 591 367 L 591 368 L 588 368 L 588 369 L 585 369 L 585 370 L 581 370 L 581 371 L 576 371 L 576 372 L 571 372 L 571 373 L 562 373 L 562 374 L 521 374 L 521 373 L 508 372 L 508 371 L 504 371 L 504 370 L 500 370 L 500 369 L 494 368 L 494 367 L 492 367 L 492 366 L 486 365 L 486 364 L 484 364 L 484 363 L 478 361 L 477 359 L 473 358 L 470 354 L 468 354 L 468 353 L 458 344 L 458 342 L 456 341 L 455 337 L 454 337 L 453 334 L 452 334 L 452 331 L 451 331 L 451 328 L 450 328 L 450 324 L 449 324 L 449 318 L 448 318 L 449 301 L 450 301 L 451 294 L 452 294 L 454 288 L 456 287 L 456 285 L 457 285 L 457 284 L 459 283 L 459 281 L 460 281 L 466 274 L 468 274 L 471 270 L 473 270 L 474 268 L 478 267 L 479 265 L 481 265 L 481 264 L 483 264 L 483 263 L 485 263 L 485 262 L 487 262 L 487 261 L 492 260 L 492 259 L 490 259 L 490 258 L 484 256 L 484 255 L 480 254 L 480 253 L 477 252 L 475 249 L 473 249 L 473 248 L 464 240 L 464 238 L 461 236 L 461 234 L 460 234 L 460 232 L 459 232 L 459 230 L 458 230 L 457 224 L 456 224 L 456 220 L 455 220 L 455 201 L 456 201 L 457 194 L 458 194 L 458 192 L 459 192 L 461 186 L 463 185 L 463 183 L 464 183 L 474 172 L 476 172 L 476 171 L 479 170 L 480 168 L 484 167 L 485 165 L 488 165 L 488 164 L 493 163 L 493 162 L 495 162 L 495 161 L 498 161 L 498 160 L 501 160 L 501 159 L 505 159 L 505 158 L 509 158 L 509 157 L 520 156 L 520 155 L 532 155 Z M 540 192 L 540 193 L 533 193 L 533 194 L 527 195 L 527 196 L 525 196 L 524 198 L 522 198 L 522 199 L 517 203 L 517 205 L 516 205 L 516 207 L 515 207 L 515 209 L 514 209 L 514 219 L 515 219 L 516 224 L 519 226 L 519 228 L 522 229 L 524 232 L 526 232 L 526 233 L 528 233 L 528 234 L 530 234 L 530 235 L 532 235 L 532 236 L 534 236 L 534 237 L 537 237 L 537 238 L 540 238 L 540 239 L 549 241 L 549 240 L 551 240 L 551 239 L 553 239 L 553 238 L 559 236 L 561 233 L 563 233 L 563 232 L 566 230 L 566 228 L 569 226 L 569 224 L 570 224 L 570 222 L 571 222 L 572 212 L 571 212 L 571 207 L 570 207 L 570 205 L 568 204 L 568 202 L 567 202 L 564 198 L 562 198 L 562 197 L 560 197 L 560 196 L 558 196 L 558 195 L 556 195 L 556 194 L 546 193 L 546 192 Z M 535 279 L 534 281 L 532 281 L 532 282 L 526 284 L 525 286 L 523 286 L 522 288 L 520 288 L 520 289 L 514 294 L 514 296 L 513 296 L 513 298 L 512 298 L 512 300 L 511 300 L 511 302 L 510 302 L 510 306 L 509 306 L 509 313 L 510 313 L 511 320 L 513 321 L 513 323 L 514 323 L 520 330 L 522 330 L 522 331 L 524 331 L 524 332 L 526 332 L 526 333 L 532 334 L 532 335 L 546 336 L 546 335 L 555 335 L 555 334 L 561 333 L 562 331 L 566 330 L 566 329 L 573 323 L 573 321 L 574 321 L 574 319 L 575 319 L 575 316 L 576 316 L 576 305 L 575 305 L 575 303 L 574 303 L 574 300 L 573 300 L 572 297 L 571 297 L 566 291 L 564 291 L 563 289 L 561 289 L 561 288 L 559 288 L 559 287 L 557 287 L 557 286 L 555 286 L 555 285 L 553 285 L 553 284 L 547 283 L 547 282 L 545 282 L 545 281 L 542 281 L 542 280 L 539 280 L 539 279 Z M 665 159 L 817 159 L 817 198 L 717 198 L 717 231 L 716 231 L 716 232 L 749 232 L 749 233 L 759 233 L 759 234 L 765 234 L 765 235 L 769 235 L 769 236 L 773 236 L 773 237 L 777 237 L 777 238 L 783 239 L 783 240 L 785 240 L 785 241 L 788 241 L 788 242 L 790 242 L 790 243 L 796 245 L 797 247 L 801 248 L 802 250 L 804 250 L 809 256 L 811 256 L 811 257 L 813 258 L 813 260 L 814 260 L 814 261 L 818 264 L 818 266 L 820 267 L 820 269 L 821 269 L 821 271 L 822 271 L 822 273 L 823 273 L 823 275 L 824 275 L 824 278 L 825 278 L 825 280 L 826 280 L 827 289 L 828 289 L 829 305 L 828 305 L 827 318 L 826 318 L 824 327 L 823 327 L 823 329 L 822 329 L 820 335 L 818 336 L 818 338 L 817 338 L 817 339 L 814 341 L 814 343 L 813 343 L 805 352 L 803 352 L 801 355 L 799 355 L 798 357 L 794 358 L 793 360 L 791 360 L 791 361 L 789 361 L 789 362 L 787 362 L 787 363 L 785 363 L 785 364 L 782 364 L 782 365 L 777 366 L 777 367 L 774 367 L 774 368 L 770 368 L 770 369 L 763 370 L 763 371 L 758 371 L 758 372 L 742 373 L 742 374 L 700 374 L 700 373 L 684 372 L 684 371 L 675 370 L 675 369 L 671 369 L 671 368 L 667 368 L 667 367 L 663 367 L 663 366 L 657 365 L 657 324 L 658 324 L 658 323 L 660 323 L 660 324 L 662 324 L 662 325 L 665 325 L 665 326 L 667 326 L 667 327 L 670 327 L 670 328 L 673 328 L 673 329 L 676 329 L 676 330 L 680 330 L 680 331 L 684 331 L 684 332 L 688 332 L 688 333 L 701 334 L 701 335 L 729 335 L 729 334 L 735 334 L 735 333 L 739 333 L 739 332 L 745 331 L 745 330 L 749 329 L 750 327 L 754 326 L 754 325 L 760 320 L 760 318 L 762 317 L 762 315 L 763 315 L 763 313 L 764 313 L 764 309 L 765 309 L 765 295 L 764 295 L 764 292 L 763 292 L 762 287 L 758 284 L 757 281 L 755 281 L 753 278 L 751 278 L 751 277 L 749 277 L 749 276 L 747 276 L 747 275 L 745 275 L 745 274 L 742 274 L 742 273 L 739 273 L 739 272 L 735 272 L 735 271 L 720 270 L 720 269 L 684 269 L 684 270 L 673 270 L 673 271 L 663 271 L 663 272 L 662 272 L 662 240 L 663 240 L 664 191 L 665 191 Z M 931 154 L 948 154 L 948 155 L 958 155 L 958 156 L 964 156 L 964 157 L 972 158 L 972 159 L 981 161 L 981 162 L 983 162 L 983 163 L 989 165 L 990 167 L 994 168 L 994 169 L 997 170 L 999 173 L 1001 173 L 1001 174 L 1010 182 L 1010 184 L 1013 186 L 1013 188 L 1015 189 L 1015 191 L 1017 192 L 1018 196 L 1020 197 L 1020 199 L 1021 199 L 1021 201 L 1022 201 L 1022 204 L 1023 204 L 1024 208 L 1025 208 L 1025 211 L 1026 211 L 1026 214 L 1027 214 L 1027 218 L 1028 218 L 1029 226 L 1030 226 L 1030 231 L 1031 231 L 1031 236 L 1032 236 L 1032 245 L 1033 245 L 1033 283 L 1032 283 L 1032 293 L 1031 293 L 1031 299 L 1030 299 L 1030 304 L 1029 304 L 1028 312 L 1027 312 L 1027 315 L 1026 315 L 1024 324 L 1023 324 L 1023 326 L 1022 326 L 1022 328 L 1021 328 L 1021 330 L 1020 330 L 1018 336 L 1016 337 L 1016 339 L 1014 340 L 1014 342 L 1011 344 L 1011 346 L 1010 346 L 1002 355 L 1000 355 L 997 359 L 995 359 L 994 361 L 990 362 L 989 364 L 987 364 L 987 365 L 985 365 L 985 366 L 982 366 L 982 367 L 980 367 L 980 368 L 977 368 L 977 369 L 975 369 L 975 370 L 968 371 L 968 372 L 963 372 L 963 373 L 956 373 L 956 374 L 922 374 L 922 373 L 911 372 L 911 371 L 907 371 L 907 370 L 901 369 L 901 368 L 899 368 L 899 367 L 896 367 L 896 366 L 890 364 L 889 362 L 887 362 L 886 360 L 884 360 L 883 358 L 881 358 L 878 354 L 876 354 L 876 353 L 868 346 L 868 344 L 865 342 L 865 340 L 864 340 L 863 337 L 861 336 L 861 334 L 860 334 L 860 332 L 859 332 L 859 330 L 858 330 L 858 328 L 857 328 L 857 326 L 856 326 L 856 324 L 855 324 L 855 321 L 854 321 L 854 318 L 853 318 L 853 315 L 852 315 L 852 312 L 851 312 L 850 304 L 849 304 L 848 293 L 847 293 L 847 285 L 846 285 L 846 244 L 847 244 L 848 230 L 849 230 L 849 225 L 850 225 L 850 221 L 851 221 L 851 217 L 852 217 L 853 211 L 854 211 L 854 209 L 855 209 L 855 206 L 856 206 L 856 204 L 857 204 L 857 202 L 858 202 L 858 199 L 859 199 L 859 197 L 861 196 L 862 192 L 864 191 L 864 189 L 866 188 L 866 186 L 869 184 L 869 182 L 870 182 L 876 175 L 878 175 L 881 171 L 883 171 L 885 168 L 887 168 L 888 166 L 890 166 L 890 165 L 892 165 L 892 164 L 894 164 L 894 163 L 896 163 L 896 162 L 899 162 L 899 161 L 901 161 L 901 160 L 907 159 L 907 158 L 911 158 L 911 157 L 915 157 L 915 156 L 921 156 L 921 155 L 931 155 Z M 938 193 L 938 194 L 932 194 L 932 195 L 929 195 L 929 196 L 926 196 L 925 198 L 923 198 L 923 199 L 920 201 L 920 203 L 917 205 L 917 207 L 916 207 L 916 209 L 915 209 L 915 211 L 914 211 L 914 213 L 913 213 L 912 220 L 911 220 L 911 224 L 910 224 L 910 229 L 909 229 L 909 237 L 908 237 L 907 279 L 908 279 L 908 294 L 909 294 L 910 306 L 911 306 L 911 310 L 912 310 L 913 316 L 914 316 L 914 318 L 915 318 L 917 324 L 918 324 L 924 331 L 926 331 L 927 333 L 930 333 L 930 334 L 933 334 L 933 335 L 946 335 L 946 334 L 949 334 L 949 333 L 955 331 L 955 330 L 961 325 L 961 323 L 962 323 L 962 321 L 964 320 L 964 317 L 965 317 L 965 315 L 966 315 L 967 309 L 968 309 L 969 299 L 970 299 L 970 292 L 971 292 L 971 282 L 972 282 L 972 252 L 971 252 L 971 237 L 970 237 L 969 224 L 968 224 L 967 216 L 966 216 L 966 214 L 965 214 L 965 211 L 964 211 L 963 207 L 961 206 L 961 204 L 960 204 L 954 197 L 952 197 L 952 196 L 950 196 L 950 195 L 947 195 L 947 194 Z M 1139 154 L 1155 154 L 1155 155 L 1165 155 L 1165 156 L 1172 156 L 1172 157 L 1180 158 L 1180 159 L 1182 159 L 1182 160 L 1186 160 L 1186 161 L 1188 161 L 1188 162 L 1190 162 L 1190 163 L 1192 163 L 1192 164 L 1198 166 L 1199 168 L 1201 168 L 1201 169 L 1203 169 L 1205 172 L 1207 172 L 1207 173 L 1220 185 L 1220 187 L 1222 188 L 1222 190 L 1224 191 L 1225 195 L 1227 196 L 1227 198 L 1228 198 L 1228 200 L 1229 200 L 1229 202 L 1230 202 L 1230 205 L 1231 205 L 1231 207 L 1232 207 L 1232 210 L 1233 210 L 1233 212 L 1234 212 L 1234 216 L 1235 216 L 1235 219 L 1236 219 L 1237 228 L 1238 228 L 1238 233 L 1239 233 L 1239 240 L 1240 240 L 1240 256 L 1241 256 L 1240 289 L 1239 289 L 1239 295 L 1238 295 L 1238 301 L 1237 301 L 1236 311 L 1235 311 L 1235 314 L 1234 314 L 1232 323 L 1231 323 L 1231 325 L 1230 325 L 1230 327 L 1229 327 L 1229 329 L 1228 329 L 1228 331 L 1227 331 L 1225 337 L 1224 337 L 1223 340 L 1220 342 L 1220 344 L 1219 344 L 1207 357 L 1205 357 L 1205 358 L 1204 358 L 1203 360 L 1201 360 L 1200 362 L 1198 362 L 1198 363 L 1196 363 L 1196 364 L 1194 364 L 1194 365 L 1192 365 L 1192 366 L 1190 366 L 1190 367 L 1188 367 L 1188 368 L 1185 368 L 1185 369 L 1182 369 L 1182 370 L 1179 370 L 1179 371 L 1175 371 L 1175 372 L 1164 373 L 1164 374 L 1130 374 L 1130 373 L 1119 372 L 1119 371 L 1115 371 L 1115 370 L 1109 369 L 1109 368 L 1107 368 L 1107 367 L 1104 367 L 1104 366 L 1102 366 L 1102 365 L 1096 363 L 1095 361 L 1093 361 L 1093 360 L 1090 359 L 1089 357 L 1087 357 L 1087 356 L 1075 345 L 1075 343 L 1072 341 L 1072 339 L 1070 338 L 1069 334 L 1067 333 L 1067 331 L 1066 331 L 1066 329 L 1065 329 L 1065 327 L 1064 327 L 1064 325 L 1063 325 L 1063 322 L 1062 322 L 1062 319 L 1061 319 L 1061 316 L 1060 316 L 1060 313 L 1059 313 L 1057 301 L 1056 301 L 1055 288 L 1054 288 L 1053 255 L 1054 255 L 1055 234 L 1056 234 L 1057 223 L 1058 223 L 1058 220 L 1059 220 L 1059 216 L 1060 216 L 1061 210 L 1062 210 L 1062 208 L 1063 208 L 1063 205 L 1064 205 L 1064 203 L 1065 203 L 1065 201 L 1066 201 L 1066 199 L 1067 199 L 1069 193 L 1071 192 L 1071 190 L 1073 189 L 1073 187 L 1076 185 L 1076 183 L 1077 183 L 1086 173 L 1088 173 L 1090 170 L 1092 170 L 1092 169 L 1095 168 L 1096 166 L 1098 166 L 1098 165 L 1100 165 L 1100 164 L 1102 164 L 1102 163 L 1104 163 L 1104 162 L 1106 162 L 1106 161 L 1109 161 L 1109 160 L 1111 160 L 1111 159 L 1115 159 L 1115 158 L 1119 158 L 1119 157 L 1123 157 L 1123 156 L 1129 156 L 1129 155 L 1139 155 Z M 1145 193 L 1145 194 L 1139 194 L 1139 195 L 1136 195 L 1136 196 L 1132 197 L 1132 198 L 1126 203 L 1126 205 L 1124 206 L 1124 208 L 1123 208 L 1123 210 L 1122 210 L 1122 212 L 1121 212 L 1120 218 L 1119 218 L 1118 227 L 1117 227 L 1117 233 L 1116 233 L 1116 243 L 1115 243 L 1115 287 L 1116 287 L 1116 297 L 1117 297 L 1117 303 L 1118 303 L 1119 311 L 1120 311 L 1120 314 L 1121 314 L 1121 316 L 1122 316 L 1123 321 L 1124 321 L 1125 324 L 1128 326 L 1128 328 L 1131 329 L 1133 332 L 1138 333 L 1138 334 L 1141 334 L 1141 335 L 1153 335 L 1153 334 L 1156 334 L 1156 333 L 1161 332 L 1162 330 L 1164 330 L 1164 329 L 1167 327 L 1167 325 L 1169 324 L 1169 322 L 1171 321 L 1171 319 L 1172 319 L 1172 317 L 1173 317 L 1173 314 L 1174 314 L 1174 311 L 1175 311 L 1175 308 L 1176 308 L 1176 303 L 1177 303 L 1177 298 L 1178 298 L 1178 290 L 1179 290 L 1179 269 L 1180 269 L 1180 267 L 1179 267 L 1179 240 L 1178 240 L 1178 231 L 1177 231 L 1176 221 L 1175 221 L 1175 218 L 1174 218 L 1174 215 L 1173 215 L 1173 212 L 1172 212 L 1170 206 L 1167 204 L 1167 202 L 1166 202 L 1163 198 L 1161 198 L 1161 197 L 1159 197 L 1159 196 L 1157 196 L 1157 195 L 1155 195 L 1155 194 Z"/>
</svg>
